<svg width="180" height="62" viewBox="0 0 180 62" fill="none" xmlns="http://www.w3.org/2000/svg">
<path d="M32.1321 49.8568H10.0727C7.40129 49.8568 4.83925 48.7957 2.95024 46.9068C1.06123 45.0179 0 42.456 0 39.7848L0 9.97137C0.0527451 7.30844 1.14783 4.7724 3.05004 2.90798C4.95225 1.04356 7.50985 -0.000522049 10.1735 1.95825e-07C12.781 0.0373016 15.2724 1.08435 17.1237 2.92091L25.6855 11.4822H17.9295C16.6067 11.4953 15.2995 11.7689 14.0824 12.2873C12.8654 12.8057 11.7623 13.5587 10.8363 14.5033C9.91034 15.448 9.17949 16.5657 8.68553 17.7928C8.19157 19.0199 7.94418 20.3323 7.95747 21.655C7.94483 22.9513 8.19743 24.2366 8.69977 25.4317C9.20211 26.6269 9.94357 27.7067 10.8786 28.6047L32.1321 49.8568Z" fill="#EA577C"></path>
<path d="M39.8876 49.8568H32.0309L10.8781 28.6047C9.01536 26.7043 7.9804 24.1441 7.99928 21.4831C8.01815 18.8222 9.08932 16.2769 10.9788 14.4031C12.8473 12.5924 15.328 11.5499 17.929 11.4822H25.7858L47.0393 32.7343C48.902 34.6347 49.937 37.195 49.9181 39.8559C49.8992 42.5168 48.828 45.0621 46.9385 46.9359C45.0206 48.733 42.5145 49.7712 39.8876 49.8568Z" fill="#485EAB"></path>
<path d="M57.8175 21.4534V51.2668C57.7898 53.2382 57.1841 55.1581 56.0755 56.7885C54.9669 58.4189 53.4041 59.6881 51.5809 60.4388C49.7577 61.1895 47.7543 61.3886 45.819 61.0115C43.8837 60.6344 42.1017 59.6976 40.6938 58.3173L32.132 49.756H39.9887C41.9602 49.7283 43.8802 49.1227 45.5107 48.0141C47.1413 46.9056 48.4106 45.3429 49.1613 43.5199C49.912 41.6968 50.1111 39.6935 49.734 37.7583C49.3568 35.8232 48.42 34.0413 47.0396 32.6335L25.7861 11.3813H47.8454C50.4937 11.426 53.0194 12.5046 54.8828 14.3867C56.7462 16.2688 57.7994 18.8051 57.8175 21.4534Z" fill="#56B9E9"></path>
<path d="M68.0915 36.7632C67.3427 36.8076 66.5933 36.6862 65.8968 36.4076C65.2004 36.1291 64.574 35.7002 64.0624 35.1517C63.7303 34.8702 63.5149 34.4753 63.458 34.0437C63.458 33.7766 63.5641 33.5204 63.753 33.3315C63.9419 33.1426 64.1981 33.0365 64.4653 33.0365C64.8211 33.0812 65.1459 33.2616 65.3718 33.5401C65.6928 33.9858 66.1171 34.3469 66.6083 34.5925C67.0996 34.8381 67.6431 34.9609 68.1922 34.9502C68.7581 34.9853 69.321 34.8446 69.8038 34.5473C70.0009 34.4409 70.1629 34.2796 70.2702 34.0829C70.3774 33.8863 70.4254 33.6627 70.4082 33.4394C70.4241 33.2328 70.3895 33.0254 70.3075 32.8351C70.2068 32.6336 70.106 32.5329 70.0053 32.3315C69.8122 32.185 69.6104 32.0505 69.4009 31.9286C69.0987 31.7272 68.8973 31.7272 68.7966 31.6264C68.5346 31.535 68.2649 31.4676 67.9907 31.425C67.89 31.425 67.7893 31.3243 67.6886 31.3243C67.1849 31.1228 66.782 31.0221 66.3791 30.8207C65.9997 30.6759 65.6297 30.5077 65.2711 30.3171C64.9117 30.1666 64.5988 29.9233 64.3646 29.612C64.1177 29.361 63.9436 29.0477 63.8609 28.7055C63.7363 28.349 63.6683 27.9752 63.6595 27.5976C63.647 27.1264 63.7507 26.6594 63.9615 26.2378C64.1723 25.8162 64.4837 25.453 64.8682 25.1803C65.8422 24.606 66.9618 24.3261 68.0915 24.3745C68.7639 24.3113 69.4419 24.4058 70.0714 24.6506C70.7009 24.8954 71.2646 25.2837 71.7177 25.7846C71.9843 26.0611 72.1601 26.4126 72.2213 26.7918C72.2152 27.0402 72.1459 27.2828 72.0198 27.4969C71.9311 27.5952 71.8221 27.6731 71.7004 27.7253C71.5787 27.7774 71.4471 27.8026 71.3148 27.799C71.1557 27.8184 70.9945 27.7905 70.8512 27.7189C70.7079 27.6473 70.5889 27.535 70.5089 27.3962C70.5089 27.3694 70.4983 27.3438 70.4794 27.3249C70.4605 27.3061 70.4349 27.2954 70.4082 27.2954C70.4082 27.1947 70.3075 27.1947 70.3075 27.094C70.2528 27.0397 70.2174 26.9689 70.2067 26.8926L70.0053 26.6911L69.8038 26.4897C69.7031 26.3889 69.6024 26.389 69.6024 26.2882C69.6024 26.1875 69.4009 26.1875 69.3002 26.1875C69.2604 26.1494 69.2127 26.1207 69.1604 26.1032C69.1082 26.0858 69.0527 26.0802 68.998 26.0868C68.8973 26.0868 68.6958 25.9861 68.5951 25.9861H68.0915C67.5268 25.9633 66.9674 26.1031 66.4798 26.389C66.2827 26.4954 66.1208 26.6567 66.0135 26.8534C65.9062 27.05 65.8583 27.2735 65.8755 27.4969V27.8998C65.8755 28.0005 65.9762 28.1012 66.0769 28.2019C66.1776 28.3026 66.2784 28.4034 66.2784 28.5041C66.2784 28.6048 66.4798 28.7055 66.5806 28.7055C66.6813 28.7055 66.8827 28.8063 66.9835 28.907C67.0842 29.0077 67.1849 29.0077 67.4871 29.1084C67.6447 29.1813 67.8173 29.2159 67.9907 29.2091C68.0915 29.2091 68.1922 29.3099 68.4944 29.4106C68.7966 29.5113 69.1995 29.612 69.5017 29.7127C69.7986 29.8286 70.1011 29.9294 70.4082 30.0149C70.6866 30.1288 70.9559 30.2634 71.214 30.4178C71.6475 30.7168 72.023 31.0923 72.322 31.5257C72.4228 31.7272 72.5235 32.0293 72.6242 32.2308C72.7073 32.5254 72.7413 32.8316 72.7249 33.1373C72.7489 33.6244 72.6509 34.1098 72.4398 34.5495C72.2287 34.9892 71.9113 35.3693 71.5162 35.6553C70.5435 36.4215 69.3287 36.8145 68.0915 36.7632Z" fill="#485EAB"></path>
<path d="M80.3807 32.5328H76.956V35.7559C76.956 36.023 76.8498 36.2792 76.6609 36.4681C76.472 36.657 76.2158 36.7631 75.9487 36.7631C75.6815 36.7631 75.4253 36.657 75.2364 36.4681C75.0475 36.2792 74.9414 36.023 74.9414 35.7559V25.7845C74.9414 25.5174 75.0475 25.2612 75.2364 25.0723C75.4253 24.8834 75.6815 24.7773 75.9487 24.7773H80.3807C80.8848 24.7719 81.385 24.8672 81.8518 25.0577C82.3186 25.2481 82.7428 25.5298 83.0993 25.8863C83.4558 26.2428 83.7375 26.6669 83.928 27.1337C84.1184 27.6005 84.2137 28.1006 84.2083 28.6047C84.2087 29.651 83.8128 30.6586 83.1003 31.4249C82.7521 31.7926 82.3293 32.0817 81.8602 32.2727C81.3912 32.4638 80.8868 32.5525 80.3807 32.5328ZM76.956 26.3889V30.8206H79.8771C80.5028 30.8372 81.1127 30.6219 81.5894 30.2162C81.8212 30.0184 82.005 29.7706 82.1272 29.4915C82.2493 29.2124 82.3065 28.9092 82.2945 28.6047C82.2975 28.3015 82.2363 28.0011 82.1147 27.7234C81.9932 27.4456 81.8142 27.1967 81.5894 26.9932C81.1514 26.5895 80.5732 26.3727 79.9778 26.3889H76.956Z" fill="#485EAB"></path>
<path d="M97.0008 35.2524C97.0809 35.3706 97.1166 35.5133 97.1015 35.6553C97.1015 35.9224 96.9954 36.1786 96.8065 36.3675C96.6176 36.5564 96.3614 36.6625 96.0943 36.6625C95.9011 36.6593 95.7129 36.6006 95.5522 36.4935C95.3915 36.3863 95.2649 36.2352 95.1877 36.0582L94.0797 33.8423H88.1368L87.2302 36.1589C87.153 36.3359 87.0265 36.4871 86.8657 36.5942C86.705 36.7013 86.5168 36.76 86.3237 36.7632C86.0565 36.7632 85.8003 36.6571 85.6114 36.4682C85.4225 36.2793 85.3164 36.0231 85.3164 35.756C85.3164 35.5546 85.3164 35.4538 85.4171 35.3531L90.655 24.9789C90.7078 24.8618 90.7925 24.762 90.8993 24.6907C91.0062 24.6195 91.1309 24.5797 91.2593 24.576C91.3917 24.5591 91.5257 24.5906 91.6368 24.6646C91.7478 24.7386 91.8284 24.8502 91.8637 24.9789L97.0008 35.2524ZM88.9426 32.4322H93.4753L91.2593 27.7991L88.9426 32.4322Z" fill="#485EAB"></path>
<path d="M100.626 36.3602C100.486 36.4983 100.307 36.592 100.114 36.6297C99.9204 36.6674 99.72 36.6475 99.5377 36.5724C99.3554 36.4973 99.1991 36.3704 99.0883 36.2074C98.9774 36.0443 98.9168 35.8523 98.9141 35.6552V25.5831C98.9141 24.9788 99.2162 24.7773 99.7199 24.7773H104.555C105.043 24.7778 105.527 24.876 105.976 25.0663C106.426 25.2566 106.833 25.5351 107.174 25.8853C107.533 26.2395 107.817 26.6634 108.008 27.1309C108.198 27.5985 108.291 28.1 108.282 28.6047C108.311 29.372 108.061 30.1238 107.577 30.7199C107.11 31.2991 106.478 31.721 105.764 31.9285L108.08 35.353C108.207 35.4907 108.278 35.6698 108.282 35.8566C108.285 35.989 108.26 36.1206 108.208 36.2423C108.156 36.364 108.078 36.473 107.98 36.5617C107.904 36.65 107.812 36.7222 107.708 36.7741C107.604 36.826 107.491 36.8565 107.375 36.8639C107.218 36.8718 107.061 36.8388 106.919 36.7682C106.778 36.6977 106.658 36.5918 106.569 36.461L103.749 32.3314H100.929V35.8566C100.886 36.0531 100.78 36.2301 100.626 36.3602ZM100.929 30.6192H104.051C104.647 30.6353 105.225 30.4185 105.663 30.0148C105.875 29.8228 106.047 29.5902 106.168 29.3307C106.289 29.0712 106.357 28.7902 106.368 28.504C106.378 28.224 106.329 27.945 106.225 27.6849C106.121 27.4247 105.964 27.1892 105.764 26.9932C105.552 26.7857 105.299 26.6247 105.022 26.5206C104.744 26.4165 104.448 26.3717 104.152 26.3889H101.029V30.6192H100.929Z" fill="#485EAB"></path>
<path d="M112.714 36.3602C112.574 36.4982 112.395 36.5919 112.202 36.6296C112.008 36.6673 111.808 36.6474 111.626 36.5724C111.443 36.4973 111.287 36.3704 111.176 36.2073C111.065 36.0443 111.005 35.8523 111.002 35.6552V25.5831C111.002 25.3159 111.108 25.0598 111.297 24.8709C111.486 24.682 111.742 24.5759 112.009 24.5759C112.276 24.5759 112.533 24.682 112.721 24.8709C112.91 25.0598 113.017 25.3159 113.017 25.5831V30.317L118.254 24.9787C118.343 24.8479 118.463 24.7421 118.604 24.6715C118.746 24.6009 118.903 24.568 119.06 24.5759C119.358 24.5683 119.647 24.6767 119.866 24.878C119.964 24.9667 120.042 25.0757 120.094 25.1974C120.147 25.3191 120.172 25.4507 120.168 25.5831C120.147 25.7971 120.078 26.0037 119.967 26.1874L116.038 30.1155L120.168 35.0508C120.28 35.2346 120.349 35.4411 120.37 35.6552C120.373 35.7875 120.348 35.9191 120.296 36.0408C120.244 36.1625 120.166 36.2715 120.067 36.3602C119.877 36.5432 119.626 36.6506 119.362 36.6624C119.189 36.6791 119.015 36.6509 118.856 36.5803C118.697 36.5097 118.559 36.3992 118.456 36.2595L114.527 31.6263L113.017 33.1371V35.5544C113.029 35.7027 113.008 35.8519 112.956 35.9912C112.904 36.1305 112.821 36.2566 112.714 36.3602Z" fill="#485EAB"></path>
<path d="M123.592 36.6625C123.325 36.6625 123.069 36.5564 122.88 36.3675C122.691 36.1786 122.585 35.9224 122.585 35.6553V25.281C122.588 25.1422 122.631 25.0072 122.709 24.8924C122.787 24.7777 122.897 24.6881 123.025 24.6347C123.153 24.5813 123.294 24.5664 123.431 24.5917C123.567 24.6171 123.693 24.6816 123.794 24.7774L129.032 31.3243L134.169 24.7774C134.228 24.6726 134.317 24.5879 134.425 24.534C134.532 24.4802 134.654 24.4597 134.773 24.4753C134.866 24.4725 134.959 24.4888 135.046 24.5233C135.133 24.5577 135.212 24.6095 135.278 24.6756C135.344 24.7416 135.396 24.8205 135.43 24.9073C135.465 24.9941 135.481 25.087 135.478 25.1803V35.6553C135.478 35.9224 135.372 36.1786 135.183 36.3675C134.994 36.5564 134.738 36.6625 134.471 36.6625C134.204 36.6625 133.947 36.5564 133.759 36.3675C133.57 36.1786 133.464 35.9224 133.464 35.6553V28.5041L129.535 33.6409C129.434 33.8423 129.233 33.8423 129.032 33.8423C128.845 33.8389 128.666 33.7672 128.528 33.6409L124.6 28.5041V35.6553C124.603 35.7877 124.578 35.9192 124.526 36.041C124.474 36.1627 124.396 36.2716 124.297 36.3603C124.107 36.5433 123.856 36.6507 123.592 36.6625Z" fill="#485EAB"></path>
<path d="M140.212 36.3603C140.072 36.4983 139.893 36.592 139.7 36.6297C139.506 36.6674 139.306 36.6475 139.124 36.5724C138.941 36.4974 138.785 36.3704 138.674 36.2074C138.563 36.0444 138.503 35.8524 138.5 35.6552V25.5831C138.5 25.316 138.606 25.0598 138.795 24.8709C138.984 24.682 139.24 24.5759 139.507 24.5759C139.774 24.5759 140.031 24.682 140.22 24.8709C140.408 25.0598 140.515 25.316 140.515 25.5831V35.6552C140.518 35.7876 140.493 35.9192 140.441 36.0409C140.389 36.1626 140.311 36.2716 140.212 36.3603Z" fill="#485EAB"></path>
<path d="M145.35 36.3603C145.209 36.4983 145.031 36.592 144.838 36.6297C144.644 36.6674 144.444 36.6475 144.261 36.5724C144.079 36.4974 143.923 36.3704 143.812 36.2074C143.701 36.0444 143.64 35.8524 143.638 35.6552V25.281C143.64 25.1422 143.683 25.0071 143.762 24.8924C143.84 24.7776 143.949 24.688 144.078 24.6346C144.206 24.5812 144.347 24.5663 144.483 24.5917C144.62 24.617 144.746 24.6815 144.846 24.7774L152.3 32.9358V25.5831C152.3 25.316 152.406 25.0598 152.595 24.8709C152.784 24.682 153.04 24.5759 153.308 24.5759C153.575 24.5759 153.831 24.682 154.02 24.8709C154.209 25.0598 154.315 25.316 154.315 25.5831V36.0581C154.315 36.2596 154.214 36.3603 154.113 36.5617C153.978 36.6922 153.798 36.7651 153.61 36.7651C153.422 36.7651 153.241 36.6922 153.106 36.5617L145.652 28.4033V35.7559C145.645 35.8718 145.614 35.985 145.563 36.0888C145.511 36.1926 145.438 36.2849 145.35 36.3603Z" fill="#485EAB"></path>
<path d="M158.445 36.5617C158.178 36.5617 157.921 36.4556 157.733 36.2667C157.544 36.0778 157.438 35.8216 157.438 35.5545V25.7846C157.438 25.5174 157.544 25.2612 157.733 25.0723C157.921 24.8835 158.178 24.7773 158.445 24.7773H162.675C163.765 24.794 164.836 25.0702 165.798 25.5831C166.738 26.041 167.513 26.7802 168.014 27.6982C168.541 28.5814 168.819 29.5907 168.819 30.6192C168.819 31.6476 168.541 32.6569 168.014 33.5401C167.486 34.4373 166.719 35.1698 165.798 35.6552C164.872 36.1674 163.834 36.4441 162.776 36.461H158.445V36.5617ZM159.452 34.648H162.675C163.205 34.6629 163.731 34.5625 164.218 34.3538C164.705 34.1451 165.141 33.8331 165.496 33.4393C166.048 32.8762 166.423 32.1635 166.573 31.3894C166.724 30.6153 166.645 29.814 166.344 29.0848C166.044 28.3556 165.536 27.7305 164.884 27.2871C164.232 26.8437 163.464 26.6014 162.675 26.5903H159.452V34.648Z" fill="#485EAB"></path>
<path d="M175.367 36.7632C174.618 36.8076 173.869 36.6862 173.172 36.4076C172.476 36.1291 171.849 35.7002 171.338 35.1517C171.006 34.8702 170.79 34.4753 170.733 34.0437C170.733 33.7766 170.84 33.5204 171.028 33.3315C171.217 33.1426 171.474 33.0365 171.741 33.0365C172.097 33.0812 172.421 33.2616 172.647 33.5401C172.968 33.9858 173.392 34.3469 173.884 34.5925C174.375 34.8381 174.918 34.9609 175.468 34.9502C176.033 34.9853 176.596 34.8446 177.079 34.5473C177.269 34.4322 177.424 34.2691 177.53 34.0746C177.636 33.88 177.689 33.6609 177.684 33.4394C177.684 33.238 177.583 33.0365 177.583 32.8351C177.583 32.6336 177.381 32.5329 177.281 32.3315C177.18 32.13 176.978 32.13 176.676 31.9286C176.456 31.8709 176.25 31.768 176.072 31.6264C175.81 31.535 175.54 31.4676 175.266 31.425C175.165 31.425 175.065 31.3243 174.964 31.3243C174.46 31.1228 174.057 31.0221 173.654 30.8207C173.275 30.6759 172.905 30.5077 172.546 30.3171C172.187 30.1666 171.874 29.9233 171.64 29.612C171.393 29.361 171.219 29.0477 171.136 28.7055C171.012 28.349 170.944 27.9752 170.935 27.5976C170.922 27.1264 171.026 26.6594 171.237 26.2378C171.448 25.8162 171.759 25.453 172.144 25.1803C173.098 24.56 174.233 24.2764 175.367 24.3745C176.039 24.3113 176.717 24.4058 177.347 24.6506C177.976 24.8954 178.54 25.2837 178.993 25.7846C179.26 26.0611 179.435 26.4126 179.497 26.7918C179.491 27.0402 179.421 27.2828 179.295 27.4969C179.207 27.5952 179.098 27.6731 178.976 27.7253C178.854 27.7774 178.723 27.8026 178.59 27.799C178.431 27.8184 178.27 27.7905 178.127 27.7189C177.983 27.6473 177.864 27.535 177.784 27.3962C177.784 27.3694 177.774 27.3438 177.755 27.3249C177.736 27.3061 177.71 27.2954 177.684 27.2954C177.684 27.1947 177.583 27.1947 177.583 27.094C177.528 27.0397 177.493 26.9689 177.482 26.8926L177.281 26.6911L177.079 26.4897C176.979 26.3889 176.878 26.389 176.878 26.2882C176.878 26.1875 176.676 26.1875 176.576 26.1875C176.536 26.1494 176.488 26.1207 176.436 26.1032C176.384 26.0858 176.328 26.0802 176.273 26.0868C176.173 26.0868 175.971 25.9861 175.871 25.9861H175.367C174.802 25.9633 174.243 26.1031 173.755 26.389C173.558 26.4954 173.396 26.6567 173.289 26.8534C173.182 27.05 173.134 27.2735 173.151 27.4969V27.8998C173.151 28.0005 173.252 28.1012 173.352 28.2019C173.453 28.3026 173.554 28.4034 173.554 28.5041C173.554 28.6048 173.755 28.7055 173.856 28.7055C173.957 28.7055 174.158 28.8063 174.259 28.907C174.36 29.0077 174.46 29.0077 174.762 29.1084C174.92 29.1813 175.093 29.2159 175.266 29.2091C175.367 29.2091 175.468 29.3099 175.77 29.4106C176.072 29.5113 176.475 29.612 176.777 29.7127C177.068 29.8441 177.372 29.9453 177.684 30.0149C177.962 30.1288 178.231 30.2634 178.489 30.4178C178.923 30.7168 179.298 31.0923 179.597 31.5257C179.698 31.7272 179.799 32.0293 179.9 32.2308C179.983 32.5254 180.017 32.8316 180 33.1373C180.024 33.6244 179.926 34.1098 179.715 34.5495C179.504 34.9892 179.187 35.3693 178.792 35.6553C177.789 36.3638 176.594 36.7503 175.367 36.7632Z" fill="#485EAB"></path>
</svg>